<svg xmlns="http://www.w3.org/2000/svg" id="iconsSVG" style="display: none;">
  <symbol viewBox="0 -16 256 288" id="profile">
    <path d="M118.2,5.2C96.9,8.7,79.8,21.3,70.4,40.5c-4.8,9.7-6,14.9-6.4,26.1c-0.3,7.5-0.1,10.2,0.9,15.2c5.4,26.1,26,46,52.3,50.6c26.3,4.5,52.8-7.9,66.2-30.8c3.6-6.2,5.1-9.8,7-16.6c1.3-4.6,1.4-6.8,1.4-16.1c0-12.9-1.1-17.7-6.3-28.3c-7.1-14.6-19.2-25.8-34.4-31.7C141.6,5,128.2,3.6,118.2,5.2z"  fill="none" stroke-linecap="round" stroke-linejoin="round" stroke-width="32"/>
    <path d="M83.6,155.5c-39.2,4.1-66,27.9-72.5,64.4c-0.6,3.8-1,9.6-1.1,17.2c-0.1,11.1,0,11.5,1.4,12.9l1.4,1.4H128h115.2l1.4-1.4c1.4-1.4,1.4-1.8,1.4-12.9c-0.1-12.9-1.1-20-4.1-29.1c-10.1-30.4-34.9-48.9-70.4-52.5C163.8,154.7,91.2,154.7,83.6,155.5z" fill="none" stroke-linecap="round" stroke-linejoin="round" stroke-width="32"/>
  </symbol>
  <symbol viewBox="0 0 256 256" id="disk">
    <path d="M216,91.31V208a8,8,0,0,1-8,8H48a8,8,0,0,1-8-8V48a8,8,0,0,1,8-8H164.69a8,8,0,0,1,5.65,2.34l43.32,43.32A8,8,0,0,1,216,91.31Z" fill="none" stroke-linecap="round" stroke-linejoin="round" stroke-width="16"/>
    <path d="M80,216V152a8,8,0,0,1,8-8h80a8,8,0,0,1,8,8v64" fill="none" stroke-linecap="round" stroke-linejoin="round" stroke-width="16"/>
    <line x1="152" y1="72" x2="96" y2="72" fill="none" stroke-linecap="round" stroke-linejoin="round" stroke-width="16"/>
  </symbol>
  <symbol viewBox="0 0 256 256" id="check">
    <polyline points="40 144 96 200 224 72" fill="none" stroke-linecap="round" stroke-linejoin="round" stroke-width="24"/>
  </symbol>
  <symbol viewBox="0 0 192 192" id="pencil">
    <path d="m104.175 90.97-4.252 38.384 38.383-4.252L247.923 15.427V2.497L226.78-18.646h-12.93zm98.164-96.96 31.671 31.67" transform="translate(-77.923 40.646)" fill="none" stroke-linecap="round" stroke-linejoin="round" stroke-width="22" />
    <path d="m195.656 33.271-52.882 52.882" transform="translate(-77.923 40.646)" fill="none" stroke-linecap="round" stroke-linejoin="round" stroke-width="22" />
  </symbol>
  <symbol viewBox="0 0 256 256" id="trash">
    <line x1="216" y1="56" x2="40" y2="56" fill="none" stroke-linecap="round" stroke-linejoin="round" stroke-width="12"/>
    <line x1="104" y1="104" x2="104" y2="168" fill="none" stroke-linecap="round" stroke-linejoin="round" stroke-width="12"/>
    <line x1="152" y1="104" x2="152" y2="168" fill="none" stroke-linecap="round" stroke-linejoin="round" stroke-width="12"/>
    <path d="M200,56V208a8,8,0,0,1-8,8H64a8,8,0,0,1-8-8V56" fill="none" stroke-linecap="round" stroke-linejoin="round" stroke-width="12"/>
    <path d="M168,56V40a16,16,0,0,0-16-16H104A16,16,0,0,0,88,40V56" fill="none" stroke-linecap="round" stroke-linejoin="round" stroke-width="12"/>
  </symbol>
</svg>
